<svg viewBox="0 0 48 47" xmlns="http://www.w3.org/2000/svg"><path fill-rule="evenodd" clip-rule="evenodd" fill="#282828" d="m36.03 30.202 9.87 9.869a3.87 3.87 0 0 1-.012 5.493c-1.507 1.52-3.975 1.52-5.494 0l-9.869-9.868a19.27 19.27 0 0 1-10.708 3.233C9.097 38.928.371 30.201.371 19.482.371 8.763 9.098.037 19.817.037c10.72 0 19.447 8.726 19.447 19.458 0 3.95-1.191 7.632-3.233 10.707ZM19.818 5.871c-7.51 0-13.612 6.1-13.612 13.612 0 7.51 6.101 13.612 13.612 13.612 7.512 0 13.613-6.101 13.613-13.612S27.329 5.87 19.817 5.87Zm7.528 15.26c1.078 0 1.96-.883 1.96-1.96 0-1.079-.882-1.96-1.96-1.96h-5.88v-5.88c0-1.079-.882-1.96-1.96-1.96-1.078 0-1.96.881-1.96 1.96v5.88h-5.88c-1.078 0-1.96.881-1.96 1.96 0 1.077.882 1.96 1.96 1.96h5.88v5.88c0 1.077.882 1.96 1.96 1.96 1.078 0 1.96-.883 1.96-1.96v-5.88h5.88Z"/></svg>