<svg viewBox="0 0 150 259" fill="none" xmlns="http://www.w3.org/2000/svg"><path d="M132.353 0H17.647C8.088 0 0 8.131 0 17.741v223.982c0 8.871 8.088 17.002 17.647 17.002h114.706c9.559 0 17.647-8.131 17.647-17.741V17.741C149.265 8.131 141.912 0 132.353 0ZM56.618 12.567h36.764c1.47 0 2.206.739 2.206 2.217 0 1.479-.735 2.218-2.206 2.218H56.618c-1.47 0-2.206-1.478-2.206-2.218 0-1.478.735-2.217 2.206-2.217ZM75 249.854c-5.147 0-8.823-3.696-8.823-8.87 0-5.175 3.676-8.871 8.823-8.871s8.823 3.696 8.823 8.871c0 5.174-4.411 8.87-8.823 8.87Zm62.5-23.655h-125V27.351h125v198.848Z" fill="#282828"/></svg>